# xmcd
#
# Track frame offsets: 
#        150
#        21804
#        36372
#        54824
#        70192
#        89303
#        108633
#        126593
#        145346
#        164896
#        181326
#        198123
#        215364
#        230321
#        244466
#
# Disc length: 3562 seconds
#
# Revision: 2
# Processed by: cddbd v1.5.2PL0 Copyright (c) Steve Scherf et al.
# Submitted via: ExactAudioCopy v0.99pb4
#
DISCID=dc0de80f
DTITLE=Various Artist - Masterblaster II CD2
DYEAR=2001
DGENRE=Hip-Hop
TTITLE0=DJ Tomekk - Return Of Hip-Hop (Feat. KRS-One, Torch and MC Rene)
TTITLE0=(DJ Membrain Remix)
TTITLE1=Curse - Entwicklungshilfe (Sieben Remix)
TTITLE2=Azad - Merkst Du Was (Feat. King Kong and Chabs)
TTITLE3=Die Firma - Grand Prix (Playmo Remix)
TTITLE4=4000 - Prolln 'N' Dissen (Rolln 'N' Ischn)
TTITLE5=Flowin' Immo - Wir Wollen Rap (Feat. Ma and DJ Stylewarz)
TTITLE6=Fiva MC - Backfisch
TTITLE7=Ma - Fleisch Und Blut (1997-Style) (Feat. Ferris MC and Toni L.)
TTITLE8=DCS - Status Quo
TTITLE9=Lenny - Rapnutten
TTITLE10=Spontan - Glanz and Glamour
TTITLE11=Pyranja - Stadt Im Nebel
TTITLE12=Raptile and Roger Rekless - True Hiphop Protections
TTITLE13=Too Strong - Shit, Der Unter Die Haut Geht
TTITLE14=DJ Hype - Affiliation Revised
EXTD=
EXTT0=
EXTT1=
EXTT2=
EXTT3=
EXTT4=
EXTT5=
EXTT6=
EXTT7=
EXTT8=
EXTT9=
EXTT10=
EXTT11=
EXTT12=
EXTT13=
EXTT14=
PLAYORDER=
